<?xml version="1.0" encoding="UTF-8"?>
<svg width="60px" height="60px" viewBox="0 0 60 60" version="1.1" xmlns="http://www.w3.org/2000/svg" xmlns:xlink="http://www.w3.org/1999/xlink">
    <!-- Generator: Sketch 43.2 (39069) - http://www.bohemiancoding.com/sketch -->
    <title>Artboard</title>
    <desc>Created with Sketch.</desc>
    <defs></defs>
    <g id="Page-1" stroke="none" stroke-width="1" fill="none" fill-rule="evenodd">
        <g id="Artboard" fill-rule="nonzero" fill="#000000">
            <g id="home" transform="translate(4.000000, 0.000000)">
                <path d="M20.9907895,41.7906977 C20.9907895,41.372093 21.2697368,41.0930233 21.6881579,41.0930233 L31.3118421,41.0930233 C31.7302632,41.0930233 32.0092105,41.372093 32.0092105,41.7906977 L32.0092105,59.5813953 L48.1184211,59.5813953 C50.8381579,59.5813953 53,57.4186047 53,54.6976744 L53,25.1860465 C53,23.4418605 52.3026316,21.7674419 51.0473684,20.5813953 L30.1960526,1.95348837 C28.1736842,-3.33066907e-16 24.8263158,-3.33066907e-16 22.8039474,1.95348837 L2.02236842,20.5116279 L1.95263158,20.5813953 C0.697368421,21.8372093 0,23.5116279 0,25.1860465 L0,54.627907 C0,57.3488372 2.16184211,59.5116279 4.88157895,59.5116279 L20.9907895,59.5116279 L20.9907895,41.7906977 Z M16.8065789,41.7906977 L16.8065789,55.3953488 L4.88157895,55.3953488 C4.46315789,55.3953488 4.18421053,55.1162791 4.18421053,54.6976744 L4.18421053,25.1860465 C4.18421053,24.627907 4.39342105,24 4.81184211,23.5813953 L25.5934211,5.02325581 L25.6631579,4.95348837 C26.0815789,4.53488372 26.8486842,4.53488372 27.2671053,4.95348837 L48.1184211,23.5813953 C48.5368421,24 48.7460526,24.5581395 48.7460526,25.1860465 L48.7460526,54.627907 C48.7460526,55.0465116 48.4671053,55.3255814 48.0486842,55.3255814 L36.1934211,55.3255814 L36.1934211,41.7906977 C36.1934211,39.0697674 34.0315789,36.9069767 31.3118421,36.9069767 L21.6881579,36.9069767 C18.9684211,36.9069767 16.8065789,39.0697674 16.8065789,41.7906977 Z" id="Shape"></path>
            </g>
        </g>
    </g>
</svg>