<?xml version="1.0" encoding="UTF-8"?>
<svg width="60px" height="60px" viewBox="0 0 60 60" version="1.1" xmlns="http://www.w3.org/2000/svg" xmlns:xlink="http://www.w3.org/1999/xlink">
    <!-- Generator: Sketch 43.2 (39069) - http://www.bohemiancoding.com/sketch -->
    <title>Artboard</title>
    <desc>Created with Sketch.</desc>
    <defs></defs>
    <g id="Page-1" stroke="none" stroke-width="1" fill="none" fill-rule="evenodd">
        <g id="saved" fill-rule="nonzero" fill="#000000">
            <path d="M15.7256639,0.0237272727 C11.681419,0.0237272727 7.6497251,1.81796591 4.59046016,5.39304545 C-1.527948,12.5430886 -1.52053984,23.9978114 4.59046016,31.1530364 L28.6593373,59.3419227 C29.0060154,59.747013 29.4865752,59.9762593 29.989072,59.9762593 C30.4915688,59.9762593 30.9721287,59.747013 31.3188067,59.3419227 C39.3517047,49.9545136 47.3738271,40.5618545 55.4067863,31.1743091 C61.5251327,24.0241295 61.5251939,12.5645114 55.4067863,5.41435227 C49.2883169,-1.73577955 39.2357455,-1.73595 33.1172761,5.41435227 L29.9986231,9.03651136 L26.8800312,5.39304545 C23.8207659,1.81796591 19.7699088,0.0237272727 15.7256639,0.0237272727 L15.7256639,0.0237272727 Z M15.7256639,4.02940909 C18.7798476,4.02940909 21.8405822,5.42427273 24.2205618,8.20554545 L28.6785006,13.4257159 C29.0251768,13.8307845 29.5057233,14.0600167 30.0082047,14.0600167 C30.5106861,14.0600167 30.9912326,13.8307845 31.3379088,13.4257159 L35.7766843,8.22685227 C40.5366435,2.66419091 47.9873578,2.66429318 52.7473782,8.22685227 C57.5072149,13.7893977 57.5072149,22.7992432 52.7473782,28.3618159 C45.1594598,37.2292636 37.5865414,46.1066727 29.9986231,54.9740591 L7.24992918,28.3405432 C2.49303159,22.7707841 2.49003159,13.7679614 7.24992918,8.20554545 C9.62984755,5.42427273 12.6714802,4.02940909 15.7256639,4.02940909 L15.7256639,4.02940909 Z" id="Shape"></path>
        </g>
        <g id="Artboard"></g>
    </g>
</svg>