<svg xmlns="http://www.w3.org/2000/svg" xmlns:xlink="http://www.w3.org/1999/xlink" version="1.1" x="0px" y="0px" viewBox="0 0 66 82.5" style="enable-background:new 0 0 66 66;" xml:space="preserve"><path d="M64.4,59.5L52.5,47.6c4.1-5.2,6.3-11.5,6.3-18c0-16.1-13.1-29.2-29.2-29.2S0.5,13.6,0.5,29.7s13.1,29.2,29.2,29.2  c6.5,0,12.9-2.2,18-6.3l11.9,11.9c0.7,0.7,1.5,1,2.4,1s1.7-0.3,2.4-1C65.8,63,65.8,60.9,64.4,59.5z M51.8,29.8  C51.8,42,41.9,52,29.7,52S7.5,42,7.5,29.8S17.4,7.6,29.7,7.6S51.8,17.5,51.8,29.8z"/></svg>
