<?xml version="1.0" encoding="UTF-8"?>
<svg width="60px" height="60px" viewBox="0 0 60 60" version="1.1" xmlns="http://www.w3.org/2000/svg" xmlns:xlink="http://www.w3.org/1999/xlink">
    <!-- Generator: Sketch 43.2 (39069) - http://www.bohemiancoding.com/sketch -->
    <title>Artboard</title>
    <desc>Created with Sketch.</desc>
    <defs></defs>
    <g id="Page-1" stroke="none" stroke-width="1" fill="none" fill-rule="evenodd">
        <g id="search" fill-rule="nonzero" fill="#000000">
            <path d="M58.5454545,54.0909091 L47.7272727,43.2727273 C51.4545455,38.5454545 53.4545455,32.8181818 53.4545455,26.9090909 C53.4545455,12.2727273 41.5454545,0.363636364 26.9090909,0.363636364 C12.2727273,0.363636364 0.454545455,12.3636364 0.454545455,27 C0.454545455,41.6363636 12.3636364,53.5454545 27,53.5454545 C32.9090909,53.5454545 38.7272727,51.5454545 43.3636364,47.8181818 L54.1818182,58.6363636 C54.8181818,59.2727273 55.5454545,59.5454545 56.3636364,59.5454545 C57.1818182,59.5454545 57.9090909,59.2727273 58.5454545,58.6363636 C59.8181818,57.2727273 59.8181818,55.3636364 58.5454545,54.0909091 Z M47.0909091,27.0909091 C47.0909091,38.1818182 38.0909091,47.2727273 27,47.2727273 C15.9090909,47.2727273 6.81818182,38.1818182 6.81818182,27.0909091 C6.81818182,16 15.8181818,6.90909091 27,6.90909091 C38.1818182,6.90909091 47.0909091,15.9090909 47.0909091,27.0909091 Z" id="Shape"></path>
        </g>
        <g id="Artboard"></g>
    </g>
</svg>